<svg xmlns="http://www.w3.org/2000/svg" width="64" height="64" viewBox="0 0 64 64" fill="none">
  <rect width="64" height="64" rx="16" fill="#121212"/>
  <path d="M32 16C26.4772 16 22 20.4772 22 26V32H20V48H44V32H42V26C42 20.4772 37.5228 16 32 16ZM32 20C35.3137 20 38 22.6863 38 26V32H26V26C26 22.6863 28.6863 20 32 20Z" fill="#6EE7B7"/>
  <path d="M30 38C30 36.8954 30.8954 36 32 36C33.1046 36 34 36.8954 34 38C34 38.7403 33.5978 39.3866 33 39.7324V43C33 43.5523 32.5523 44 32 44C31.4477 44 31 43.5523 31 43V39.7324C30.4022 39.3866 30 38.7403 30 38Z" fill="#6EE7B7"/>
</svg> 